<svg width="562" height="634" viewBox="0 0 562 634" fill="none" xmlns="http://www.w3.org/2000/svg" xmlns:xlink="http://www.w3.org/1999/xlink">
<path d="M112.676 633.458C174.905 633.458 225.352 583.011 225.352 520.782C225.352 458.553 174.905 408.106 112.676 408.106C50.4467 408.106 0 458.553 0 520.782C0 583.011 50.4467 633.458 112.676 633.458Z" fill="#FFB78A"/>
<path d="M481.907 549.261C526.141 549.261 562 513.402 562 469.167C562 424.933 526.141 389.073 481.907 389.073C437.672 389.073 401.813 424.933 401.813 469.167C401.813 513.402 437.672 549.261 481.907 549.261Z" fill="#FFEFE6"/>
<path d="M105.884 336.149C130.619 336.149 150.671 316.097 150.671 291.361C150.671 266.626 130.619 246.574 105.884 246.574C81.148 246.574 61.0959 266.626 61.0959 291.361C61.0959 316.097 81.148 336.149 105.884 336.149Z" fill="#FFCFB0"/>
<path d="M293.654 622.838L177.116 592.773C100.022 572.879 53.6485 494.302 73.5426 417.208L103.608 300.671C123.502 223.577 202.079 177.203 279.173 197.097L395.71 227.162C472.804 247.057 519.178 325.633 499.283 402.727L469.218 519.264C449.358 596.324 370.748 642.732 293.654 622.838Z" fill="#FF9654"/>
<mask id="mask0_1_1780" style="mask-type:alpha" maskUnits="userSpaceOnUse" x="68" y="192" width="436" height="436">
<path d="M293.654 622.838L177.116 592.773C100.022 572.879 53.6485 494.302 73.5426 417.208L103.608 300.671C123.502 223.577 202.079 177.203 279.173 197.097L395.71 227.162C472.804 247.057 519.178 325.633 499.283 402.727L469.218 519.264C449.358 596.324 370.748 642.732 293.654 622.838Z" fill="#FF9654"/>
</mask>
</svg>
